<svg
  class="seperator"
  preserveAspectRatio="none"
  xmlns="http://www.w3.org/2000/svg"
  viewBox="0 0 1440 320"
>
  <path
    d="M0 107L26.7 123.2C53.3 139.3 106.7 171.7 160 186.5C213.3 201.3 266.7 198.7 320 181.5C373.3 164.3 426.7 132.7 480 132.7C533.3 132.7 586.7 164.3 640 178.7C693.3 193 746.7 190 800 181C853.3 172 906.7 157 960 143.2C1013.3 129.3 1066.7 116.7 1120 115.5C1173.3 114.3 1226.7 124.7 1280 121.7C1333.3 118.7 1386.7 102.3 1413.3 94.2L1440 86L1440 0L1413.3 0C1386.7 0 1333.3 0 1280 0C1226.7 0 1173.3 0 1120 0C1066.7 0 1013.3 0 960 0C906.7 0 853.3 0 800 0C746.7 0 693.3 0 640 0C586.7 0 533.3 0 480 0C426.7 0 373.3 0 320 0C266.7 0 213.3 0 160 0C106.7 0 53.3 0 26.7 0L0 0Z"
    fill="#0066FF"
    stroke-linecap="round"
    stroke-linejoin="miter"
  ></path>
</svg>
